<svg width="24" height="24" viewBox="0 0 24 24" fill="none" xmlns="http://www.w3.org/2000/svg">
<path d="M16 22H18C18.5304 22 19.0391 21.7893 19.4142 21.4142C19.7893 21.0391 20 20.5304 20 20V8.00001C20.0008 7.68312 19.9388 7.36921 19.8176 7.0764C19.6964 6.78359 19.5185 6.51768 19.294 6.29401L15.706 2.70601C15.4823 2.48153 15.2164 2.30357 14.9236 2.18239C14.6308 2.06122 14.3169 1.99923 14 2.00001H6C5.46957 2.00001 4.96086 2.21072 4.58579 2.58579C4.21071 2.96087 4 3.46957 4 4.00001V6.85001" stroke="white" stroke-width="2" stroke-linecap="round" stroke-linejoin="round"/>
<path d="M14 2V7C14 7.26522 14.1054 7.51957 14.2929 7.70711C14.4804 7.89464 14.7348 8 15 8H20" stroke="white" stroke-width="2" stroke-linecap="round" stroke-linejoin="round"/>
<path d="M8 14V16.2L9.6 17.2" stroke="white" stroke-width="2" stroke-linecap="round" stroke-linejoin="round"/>
<path d="M8 22C11.3137 22 14 19.3137 14 16C14 12.6863 11.3137 10 8 10C4.68629 10 2 12.6863 2 16C2 19.3137 4.68629 22 8 22Z" stroke="white" stroke-width="2" stroke-linecap="round" stroke-linejoin="round"/>
</svg>
